<svg width="24" height="22" viewBox="0 0 24 22" fill="none" xmlns="http://www.w3.org/2000/svg">
<g filter="url(#filter0_d)">
<path d="M19.9399 14.1229C19.8912 15.1874 19.7221 15.9143 19.4749 16.5503C19.2239 17.2176 18.8303 17.822 18.3215 18.3215C17.8221 18.8303 17.2176 19.2241 16.5503 19.4753C15.9142 19.7223 15.1874 19.8912 14.1229 19.9396C13.0565 19.9884 12.7158 20 10 20C7.28424 20 6.94351 19.9884 5.87708 19.9399C4.81262 19.8912 4.08585 19.7221 3.44971 19.4749C2.78244 19.2239 2.17804 18.8303 1.67847 18.3215C1.16974 17.8221 0.775909 17.2177 0.52475 16.5504C0.27771 15.9143 0.108795 15.1874 0.0604248 14.1231C0.0115967 13.0565 0 12.7159 0 10.0002C0 7.28424 0.0115967 6.94351 0.0604248 5.87708C0.108948 4.81278 0.278015 4.08585 0.525207 3.44971C0.776215 2.78259 1.16989 2.17804 1.67862 1.67862C2.17804 1.16989 2.78259 0.776216 3.44986 0.525209C4.08585 0.277864 4.81277 0.10895 5.87723 0.0602741C6.94382 0.0115986 7.28439 0.000154495 10.0002 0.000154495C12.7159 0.000154495 13.0566 0.0115986 14.1231 0.0602741C15.1875 0.10895 15.9143 0.277864 16.5504 0.525209C17.8937 1.04462 18.9555 2.10648 19.4749 3.44971C19.7223 4.08585 19.8912 4.81278 19.9399 5.87708C19.9884 6.94367 20 7.28424 20 10C20 12.7159 19.9884 13.0565 19.9399 14.1229V14.1229ZM18.1398 5.95902C18.0954 4.98398 17.9324 4.4545 17.7956 4.10217C17.4591 3.22998 16.7699 2.54074 15.8977 2.20429C15.5453 2.06742 15.0159 1.90445 14.0408 1.86005C12.9866 1.81183 12.6703 1.80176 10 1.80176C7.32956 1.80176 7.0134 1.81183 5.95901 1.86005C4.98413 1.90445 4.45465 2.06742 4.10217 2.20429C3.66791 2.36466 3.27499 2.62024 2.95242 2.95242C2.62024 3.275 2.36465 3.66776 2.20428 4.10217C2.06741 4.4545 1.90445 4.98398 1.86005 5.95902C1.81198 7.0134 1.80176 7.32971 1.80176 9.99985C1.80176 12.6701 1.81198 12.9863 1.86005 14.0408C1.9046 15.0159 2.06741 15.5453 2.20428 15.8977C2.36465 16.3321 2.62039 16.725 2.95242 17.0476C3.27499 17.3798 3.66791 17.6353 4.10233 17.7956C4.45465 17.9326 4.98413 18.0954 5.95917 18.14C7.01355 18.188 7.32986 18.1982 10 18.1982H9.99985C12.67 18.1982 12.9863 18.188 14.0408 18.1398C15.0159 18.0954 15.5452 17.9324 15.8977 17.7956C16.3319 17.6352 16.7249 17.3796 17.0474 17.0476C17.3796 16.725 17.6352 16.3321 17.7954 15.8977C17.9324 15.5453 18.0954 15.0159 18.1398 14.0408C18.1879 12.9865 18.1981 12.6701 18.1981 10C18.1981 7.32971 18.188 7.01355 18.1398 5.95902Z" fill="url(#paint0_linear)"/>
<path d="M10.135 15.2703C7.29904 15.2703 5 12.9711 5 10.1351C5 7.29907 7.29904 5.00003 10.135 5.00003C12.9712 5.00003 15.2702 7.29907 15.2702 10.1351C15.2702 12.9711 12.9712 15.2703 10.135 15.2703V15.2703ZM10.135 6.80179C8.29422 6.80194 6.80176 8.29425 6.80191 10.1352C6.80191 11.976 8.29422 13.4685 10.1352 13.4685C11.9762 13.4684 13.4685 11.976 13.4685 10.1352C13.4685 8.29425 11.976 6.80179 10.135 6.80179V6.80179Z" fill="url(#paint1_linear)"/>
<path d="M16.5379 15.338C16.5379 14.6753 16.0007 14.138 15.338 14.138C14.6751 14.138 14.1379 14.6753 14.1379 15.338C14.1379 16.0008 14.6751 16.5381 15.338 16.5381C16.0007 16.5381 16.5379 16.0008 16.5379 15.338V15.338Z" fill="url(#paint2_linear)"/>
</g>
<defs>
<filter id="filter0_d" x="-4" y="0" width="28" height="28" filterUnits="userSpaceOnUse" color-interpolation-filters="sRGB">
<feFlood flood-opacity="0" result="BackgroundImageFix"/>
<feColorMatrix in="SourceAlpha" type="matrix" values="0 0 0 0 0 0 0 0 0 0 0 0 0 0 0 0 0 0 127 0"/>
<feOffset dy="4"/>
<feGaussianBlur stdDeviation="2"/>
<feColorMatrix type="matrix" values="0 0 0 0 0 0 0 0 0 0 0 0 0 0 0 0 0 0 0.25 0"/>
<feBlend mode="normal" in2="BackgroundImageFix" result="effect1_dropShadow"/>
<feBlend mode="normal" in="SourceGraphic" in2="effect1_dropShadow" result="shape"/>
</filter>
<linearGradient id="paint0_linear" x1="1.67837" y1="1.67853" x2="18.3216" y2="18.3218" gradientUnits="userSpaceOnUse">
<stop stop-color="#FFD600"/>
<stop offset="0.5" stop-color="#FF0100"/>
<stop offset="1" stop-color="#D800B9"/>
</linearGradient>
<linearGradient id="paint1_linear" x1="6.50406" y1="6.50406" x2="13.7662" y2="13.7662" gradientUnits="userSpaceOnUse">
<stop stop-color="#FF6400"/>
<stop offset="0.5" stop-color="#FF0100"/>
<stop offset="1" stop-color="#FD0056"/>
</linearGradient>
<linearGradient id="paint2_linear" x1="14.4894" y1="14.4895" x2="16.1864" y2="16.1866" gradientUnits="userSpaceOnUse">
<stop stop-color="#F30072"/>
<stop offset="1" stop-color="#E50097"/>
</linearGradient>
</defs>
</svg>
