<svg width="15" height="15" viewBox="0 0 15 15" fill="none" xmlns="http://www.w3.org/2000/svg">
<path d="M4.83284 9.69741H4.83353C4.8341 9.69741 4.83467 9.6973 4.83524 9.6973H12.8027C12.9989 9.6973 13.1713 9.56718 13.2253 9.37858L14.9831 3.22623C15.0209 3.0936 14.9944 2.951 14.9114 2.84091C14.8283 2.73082 14.6984 2.66605 14.5605 2.66605H3.81935L3.50521 1.25236C3.46046 1.05128 3.28217 0.908234 3.07617 0.908234H0.439453C0.196724 0.908234 0 1.10496 0 1.34769C0 1.59042 0.196724 1.78714 0.439453 1.78714H2.72369C2.77931 2.03765 4.22699 8.55231 4.3103 8.92711C3.84327 9.13013 3.51562 9.59579 3.51562 10.1367C3.51562 10.8637 4.10706 11.4551 4.83398 11.4551H12.8027C13.0455 11.4551 13.2422 11.2584 13.2422 11.0157C13.2422 10.7729 13.0455 10.5762 12.8027 10.5762H4.83398C4.59171 10.5762 4.39453 10.379 4.39453 10.1367C4.39453 9.89482 4.59103 9.69798 4.83284 9.69741ZM13.9779 3.54495L12.4712 8.81839H5.18646L4.01459 3.54495H13.9779Z" fill="#CFCCCC"/>
<path d="M4.39453 12.7734C4.39453 13.5004 4.98596 14.0918 5.71289 14.0918C6.43982 14.0918 7.03125 13.5004 7.03125 12.7734C7.03125 12.0465 6.43982 11.4551 5.71289 11.4551C4.98596 11.4551 4.39453 12.0465 4.39453 12.7734ZM5.71289 12.334C5.95516 12.334 6.15234 12.5312 6.15234 12.7734C6.15234 13.0157 5.95516 13.2129 5.71289 13.2129C5.47062 13.2129 5.27344 13.0157 5.27344 12.7734C5.27344 12.5312 5.47062 12.334 5.71289 12.334Z" fill="#CFCCCC"/>
<path d="M10.6055 12.7734C10.6055 13.5004 11.1969 14.0918 11.9238 14.0918C12.6508 14.0918 13.2422 13.5004 13.2422 12.7734C13.2422 12.0465 12.6508 11.4551 11.9238 11.4551C11.1969 11.4551 10.6055 12.0465 10.6055 12.7734ZM11.9238 12.334C12.1661 12.334 12.3633 12.5312 12.3633 12.7734C12.3633 13.0157 12.1661 13.2129 11.9238 13.2129C11.6816 13.2129 11.4844 13.0157 11.4844 12.7734C11.4844 12.5312 11.6816 12.334 11.9238 12.334Z" fill="#CFCCCC"/>
</svg>
