<svg width="15" height="15" viewBox="0 0 15 15" fill="none" xmlns="http://www.w3.org/2000/svg">
<g clip-path="url(#clip0)">
<path d="M14.7481 6.7056L13.4809 5.55098V1.72238C13.4809 1.47878 13.2834 1.28126 13.0398 1.28126H9.98953C9.74592 1.28126 9.54841 1.47875 9.54841 1.72238V1.96771L8.01805 0.573268C7.72265 0.304059 7.27719 0.304088 6.98191 0.573239L0.25189 6.70563C0.0152885 6.92126 -0.0629049 7.25348 0.0527006 7.55199C0.168335 7.85049 0.449878 8.04335 0.770005 8.04335H1.84488V14.1875C1.84488 14.4311 2.04237 14.6286 2.286 14.6286H5.97486C6.21846 14.6286 6.41598 14.4312 6.41598 14.1875V10.457H8.58398V14.1876C8.58398 14.4312 8.78147 14.6287 9.0251 14.6287H12.7138C12.9574 14.6287 13.1549 14.4312 13.1549 14.1876V8.04338H14.23C14.5501 8.04338 14.8317 7.85049 14.9473 7.55202C15.0629 7.25348 14.9847 6.92126 14.7481 6.7056ZM12.7138 7.16114C12.4702 7.16114 12.2727 7.35863 12.2727 7.60226V13.7464H9.46626V10.0159C9.46626 9.77225 9.26874 9.57473 9.02513 9.57473H5.97486C5.73126 9.57473 5.53374 9.77222 5.53374 10.0159V13.7464H2.7271V7.60226C2.7271 7.35866 2.52961 7.16114 2.28597 7.16114H1.06186L7.50003 1.29473L9.69249 3.29252C9.82163 3.41017 10.008 3.44049 10.1678 3.36998C10.3276 3.29937 10.4307 3.14111 10.4307 2.96644V2.1635H12.5987V5.74581C12.5987 5.86994 12.651 5.98827 12.7427 6.07188L13.9381 7.16114H12.7138Z" fill="#CFCCCC"/>
</g>
<defs>
<clipPath id="clip0">
<rect width="15" height="15" fill="white"/>
</clipPath>
</defs>
</svg>
