<svg width="106" height="40" viewBox="0 0 106 40" fill="none" xmlns="http://www.w3.org/2000/svg">
<path d="M20 10C18.0222 10 16.0888 10.5865 14.4443 11.6853C12.7998 12.7841 11.5181 14.3459 10.7612 16.1732C10.0043 18.0004 9.8063 20.0111 10.1922 21.9509C10.578 23.8907 11.5304 25.6725 12.9289 27.0711C14.3275 28.4696 16.1093 29.422 18.0491 29.8079C19.9889 30.1937 21.9996 29.9957 23.8268 29.2388C25.6541 28.4819 27.2159 27.2002 28.3147 25.5557C29.4135 23.9112 30 21.9778 30 20C29.997 17.3488 28.9424 14.807 27.0677 12.9323C25.193 11.0576 22.6512 10.003 20 10ZM20 28.75C18.2694 28.75 16.5777 28.2368 15.1388 27.2754C13.6998 26.3139 12.5783 24.9473 11.9161 23.3485C11.2538 21.7496 11.0805 19.9903 11.4181 18.293C11.7558 16.5956 12.5891 15.0365 13.8128 13.8128C15.0365 12.5891 16.5956 11.7557 18.293 11.4181C19.9903 11.0805 21.7496 11.2538 23.3485 11.9161C24.9473 12.5783 26.3139 13.6998 27.2754 15.1388C28.2368 16.5777 28.75 18.2694 28.75 20C28.7474 22.3198 27.8247 24.5439 26.1843 26.1843C24.5439 27.8247 22.3198 28.7474 20 28.75V28.75Z" fill="black"/>
<path d="M38.125 3.125H36.875C35.3837 3.12667 33.9539 3.71985 32.8994 4.77437C31.8448 5.8289 31.2517 7.25867 31.25 8.75V10.0781C29.9297 8.58089 28.3239 7.36228 26.5265 6.49375C24.7292 5.62523 22.7765 5.12425 20.783 5.0202C18.7895 4.91615 16.7953 5.21111 14.9173 5.8878C13.0393 6.56449 11.3153 7.60929 9.84633 8.96094L9.51203 3.71016C9.50014 3.54575 9.42378 3.39269 9.29958 3.28432C9.17538 3.17594 9.01339 3.12101 8.84889 3.1315C8.68439 3.14199 8.53069 3.21704 8.42126 3.34031C8.31182 3.46359 8.25552 3.6251 8.26461 3.78969L8.66148 10.0232C8.37359 10.2258 7.55523 10.5301 6.25 10.6067V3.75C6.25 3.58424 6.18415 3.42527 6.06694 3.30806C5.94973 3.19085 5.79076 3.125 5.625 3.125C5.45924 3.125 5.30027 3.19085 5.18306 3.30806C5.06585 3.42527 5 3.58424 5 3.75V10.6066C3.7693 10.533 2.91039 10.2528 2.58859 10.0213L2.98539 3.78977C2.99448 3.62518 2.93817 3.46367 2.82874 3.34039C2.71931 3.21712 2.56561 3.14207 2.40111 3.13158C2.2366 3.12109 2.07462 3.17602 1.95042 3.28439C1.82621 3.39277 1.74986 3.54583 1.73797 3.71023L1.25508 11.2932C1.21224 12.0222 1.44497 12.7407 1.90711 13.3062C2.36925 13.8717 3.02703 14.2428 3.75 14.3459V20.625C3.58424 20.625 3.42527 20.6908 3.30806 20.8081C3.19085 20.9253 3.125 21.0842 3.125 21.25V33.125C3.125 33.788 3.38839 34.4239 3.85723 34.8928C4.32607 35.3616 4.96196 35.625 5.625 35.625C6.28804 35.625 6.92393 35.3616 7.39277 34.8928C7.86161 34.4239 8.125 33.788 8.125 33.125V29.1623C9.71736 31.2241 11.819 32.8359 14.2232 33.839C16.6275 34.8422 19.2514 35.2021 21.837 34.8836C24.4225 34.565 26.8806 33.5788 28.9694 32.022C31.0582 30.4653 32.7058 28.3916 33.75 26.0049V33.125C33.75 33.788 34.0134 34.4239 34.4822 34.8928C34.9511 35.3616 35.587 35.625 36.25 35.625C36.913 35.625 37.5489 35.3616 38.0178 34.8928C38.4866 34.4239 38.75 33.788 38.75 33.125V3.75C38.75 3.58424 38.6842 3.42527 38.5669 3.30806C38.4497 3.19085 38.2908 3.125 38.125 3.125ZM6.875 33.125C6.875 33.4565 6.7433 33.7745 6.50888 34.0089C6.27446 34.2433 5.95652 34.375 5.625 34.375C5.29348 34.375 4.97554 34.2433 4.74112 34.0089C4.50669 33.7745 4.375 33.4565 4.375 33.125V21.875H6.875V33.125ZM5 20.625V14.375H6.25V20.625H5ZM7.08898 13.125H4.16101C3.9353 13.125 3.71194 13.079 3.5046 12.9898C3.29725 12.9006 3.11027 12.7701 2.95507 12.6062C2.79988 12.4423 2.67972 12.2485 2.60195 12.0366C2.52417 11.8247 2.49041 11.5991 2.50273 11.3737C3.20351 11.662 4.23437 11.875 5.625 11.875C6.76711 11.875 7.91406 11.7152 8.74711 11.3767C8.75908 11.6019 8.72506 11.8271 8.64713 12.0387C8.5692 12.2502 8.449 12.4437 8.29385 12.6073C8.1387 12.7709 7.95185 12.9011 7.7447 12.9902C7.53755 13.0792 7.31445 13.125 7.08898 13.125V13.125ZM29.3188 30.1108C27.8067 31.5043 26.0014 32.5409 24.0357 33.1444C22.07 33.7479 19.994 33.9029 17.9605 33.5979C15.927 33.2929 13.9878 32.5358 12.2857 31.3822C10.5835 30.2286 9.16172 28.7079 8.125 26.9322V21.25C8.125 21.0842 8.05915 20.9253 7.94194 20.8081C7.82473 20.6908 7.66576 20.625 7.5 20.625V14.3459C8.22349 14.2427 8.88169 13.8712 9.34386 13.305C9.80603 12.7389 10.0384 12.0197 9.99469 11.2902L9.95164 10.6151C11.3477 9.12001 13.0598 7.95532 14.9631 7.2059C16.8664 6.45648 18.9129 6.14122 20.9535 6.28311C22.9941 6.425 24.9773 7.02046 26.7586 8.02608C28.5399 9.0317 30.0743 10.4221 31.25 12.096V21.25C31.25 21.4158 31.3158 21.5747 31.4331 21.6919C31.5503 21.8092 31.7092 21.875 31.875 21.875H33.6226C33.1909 25.0377 31.6687 27.9505 29.3188 30.1108V30.1108ZM37.5 33.125C37.5 33.4565 37.3683 33.7745 37.1339 34.0089C36.8995 34.2433 36.5815 34.375 36.25 34.375C35.9185 34.375 35.6005 34.2433 35.3661 34.0089C35.1317 33.7745 35 33.4565 35 33.125V21.875H37.5V33.125ZM37.5 20.625H32.5V8.75C32.5013 7.59008 32.9627 6.47804 33.7828 5.65785C34.603 4.83766 35.7151 4.3763 36.875 4.375H37.5V20.625Z" fill="black"/>
<path d="M42.96 15.28C43.2907 13.6907 43.456 12.0427 43.456 10.336C43.456 8.62933 43.3227 6.90133 43.056 5.152C44.5067 4.74667 45.792 4.544 46.912 4.544C48.576 4.544 49.84 4.98133 50.704 5.856C51.5787 6.72 52.016 8.03733 52.016 9.808C52.016 11.5787 51.52 13.072 50.528 14.288C49.5467 15.4933 48.1813 16.096 46.432 16.096C45.2373 16.096 44.08 15.824 42.96 15.28ZM45.44 6.16C45.344 7.46133 45.296 8.72533 45.296 9.952C45.296 11.168 45.3547 12.64 45.472 14.368C45.9093 14.5173 46.4 14.592 46.944 14.592C47.488 14.592 47.9573 14.4693 48.352 14.224C48.7573 13.968 49.0667 13.6213 49.28 13.184C49.696 12.352 49.904 11.3333 49.904 10.128C49.904 8.96533 49.68 8.00533 49.232 7.248C48.7413 6.39467 47.9787 5.968 46.944 5.968C46.3787 5.968 45.8773 6.032 45.44 6.16ZM54.772 12.368C54.772 13.136 54.8947 13.744 55.14 14.192C55.3853 14.6293 55.796 14.848 56.372 14.848C56.948 14.848 57.396 14.656 57.716 14.272C58.0467 13.8773 58.212 13.4027 58.212 12.848C58.5747 12.848 58.8893 12.9387 59.156 13.12C59.4227 13.3013 59.556 13.552 59.556 13.872C59.556 14.5333 59.204 15.088 58.5 15.536C57.796 15.9733 57.0547 16.192 56.276 16.192C55.06 16.192 54.18 15.8667 53.636 15.216C53.092 14.5547 52.82 13.5787 52.82 12.288C52.82 10.9973 53.1827 9.91467 53.908 9.04C54.644 8.15467 55.62 7.712 56.836 7.712C57.668 7.712 58.3347 7.904 58.836 8.288C59.348 8.66133 59.604 9.248 59.604 10.048C59.604 10.8373 59.2413 11.4347 58.516 11.84C57.8013 12.2347 56.9267 12.432 55.892 12.432C55.5293 12.432 55.156 12.4107 54.772 12.368ZM54.788 11.104C55.108 11.168 55.444 11.2 55.796 11.2C56.564 11.2 57.2093 11.056 57.732 10.768C57.796 10.512 57.828 10.3093 57.828 10.16C57.828 9.78667 57.6947 9.504 57.428 9.312C57.1613 9.12 56.7933 9.024 56.324 9.024C55.8653 9.024 55.4493 9.17333 55.076 9.472C54.884 10.0267 54.788 10.5707 54.788 11.104ZM61.2893 4.192C61.6306 4.064 61.9826 4 62.3453 4C62.7079 4 63.0066 4.12267 63.2413 4.368C63.4866 4.60267 63.6093 4.928 63.6093 5.344C63.6093 5.74933 63.5506 6.57067 63.4333 7.808C63.3266 9.03467 63.2733 10 63.2733 10.704C63.2733 12.4427 63.3959 14.144 63.6413 15.808C63.2999 15.936 62.9373 16 62.5533 16C61.7319 16 61.3213 15.6 61.3213 14.8C61.3213 14.416 61.3799 13.664 61.4973 12.544C61.6146 11.4133 61.6733 10.5067 61.6733 9.824C61.6733 7.552 61.5453 5.67467 61.2893 4.192ZM65.4741 8.048C65.8155 7.952 66.1568 7.904 66.4981 7.904C66.8501 7.904 67.1488 8.01067 67.3941 8.224C67.6395 8.43733 67.7621 8.71467 67.7621 9.056C67.7621 9.38667 67.7035 9.968 67.5861 10.8C67.4795 11.6213 67.4261 12.2613 67.4261 12.72C67.4261 13.9147 67.5381 14.944 67.7621 15.808C67.4315 15.936 67.0741 16 66.6901 16C66.3061 16 66.0021 15.9147 65.7781 15.744C65.5541 15.5627 65.4421 15.3067 65.4421 14.976C65.4421 14.6347 65.5061 14.08 65.6341 13.312C65.7621 12.544 65.8261 11.9093 65.8261 11.408C65.8261 10.0747 65.7088 8.95467 65.4741 8.048ZM65.6821 4.432C66.0555 4.26133 66.4235 4.176 66.7861 4.176C67.1488 4.176 67.4155 4.272 67.5861 4.464C67.7675 4.64533 67.8581 4.91733 67.8581 5.28C67.8581 5.64267 67.7355 5.96267 67.4901 6.24C67.2555 6.51733 66.9461 6.656 66.5621 6.656C65.7728 6.656 65.3781 6.24533 65.3781 5.424C65.3781 5.06133 65.4795 4.73067 65.6821 4.432ZM75.7443 13.472C75.3709 14.1973 74.9016 14.816 74.3363 15.328C73.7709 15.84 73.2056 16.096 72.6403 16.096C72.0749 16.096 71.6376 15.904 71.3283 15.52C71.0296 15.1253 70.8163 14.624 70.6883 14.016C70.5603 13.3973 70.4429 12.7627 70.3363 12.112C70.2403 11.4613 70.0696 10.8267 69.8243 10.208C69.5789 9.58933 69.2429 9.12533 68.8163 8.816C68.9549 8.56 69.1629 8.34667 69.4403 8.176C69.7176 7.99467 70.0163 7.904 70.3363 7.904C70.8376 7.904 71.2429 8.22933 71.5523 8.88C71.8616 9.52 72.0589 10.2293 72.1443 11.008C72.2403 11.7867 72.3416 12.544 72.4483 13.28C72.5656 14.0053 72.6989 14.4213 72.8483 14.528C73.2109 14.5067 73.5256 14.2773 73.7923 13.84C74.0696 13.392 74.2723 12.8533 74.4003 12.224C74.6349 11.072 74.7523 10.1707 74.7523 9.52C74.7523 8.86933 74.7203 8.368 74.6563 8.016C75.0296 7.94133 75.3496 7.904 75.6163 7.904C76.5336 7.904 76.9923 8.34133 76.9923 9.216C76.9923 9.77067 76.8749 10.4373 76.6403 11.216C76.4163 11.984 76.1176 12.736 75.7443 13.472ZM79.4283 12.368C79.4283 13.136 79.5509 13.744 79.7963 14.192C80.0416 14.6293 80.4523 14.848 81.0283 14.848C81.6043 14.848 82.0523 14.656 82.3723 14.272C82.7029 13.8773 82.8683 13.4027 82.8683 12.848C83.2309 12.848 83.5456 12.9387 83.8123 13.12C84.0789 13.3013 84.2123 13.552 84.2123 13.872C84.2123 14.5333 83.8603 15.088 83.1563 15.536C82.4523 15.9733 81.7109 16.192 80.9323 16.192C79.7163 16.192 78.8363 15.8667 78.2923 15.216C77.7483 14.5547 77.4763 13.5787 77.4763 12.288C77.4763 10.9973 77.8389 9.91467 78.5643 9.04C79.3003 8.15467 80.2763 7.712 81.4923 7.712C82.3243 7.712 82.9909 7.904 83.4923 8.288C84.0043 8.66133 84.2603 9.248 84.2603 10.048C84.2603 10.8373 83.8976 11.4347 83.1723 11.84C82.4576 12.2347 81.5829 12.432 80.5483 12.432C80.1856 12.432 79.8123 12.4107 79.4283 12.368ZM79.4443 11.104C79.7643 11.168 80.1003 11.2 80.4523 11.2C81.2203 11.2 81.8656 11.056 82.3883 10.768C82.4523 10.512 82.4843 10.3093 82.4843 10.16C82.4843 9.78667 82.3509 9.504 82.0843 9.312C81.8176 9.12 81.4496 9.024 80.9803 9.024C80.5216 9.024 80.1056 9.17333 79.7323 9.472C79.5403 10.0267 79.4443 10.5707 79.4443 11.104ZM88.1215 15.808C87.7908 15.936 87.4388 16 87.0655 16C86.6922 16 86.3882 15.9147 86.1535 15.744C85.9295 15.5627 85.8175 15.3173 85.8175 15.008C85.8175 14.688 85.8655 14.112 85.9615 13.28C86.0575 12.448 86.1055 11.6427 86.1055 10.864C86.1055 10.0747 85.9828 9.152 85.7375 8.096C86.0788 7.968 86.4148 7.904 86.7455 7.904C87.0762 7.904 87.3588 8.016 87.5935 8.24C87.8388 8.464 87.9615 8.76267 87.9615 9.136C87.9615 9.328 87.9295 9.616 87.8655 10C87.8015 10.3733 87.7642 10.656 87.7535 10.848C88.1695 9.89867 88.6602 9.15733 89.2255 8.624C89.8015 8.08 90.3722 7.808 90.9375 7.808C91.3322 7.808 91.6468 7.94667 91.8815 8.224C92.1162 8.50133 92.2335 8.85333 92.2335 9.28C92.2335 9.696 92.1268 10.0373 91.9135 10.304C91.7002 10.56 91.4335 10.688 91.1135 10.688C90.8042 10.688 90.5535 10.656 90.3615 10.592C90.3935 10.464 90.4095 10.3467 90.4095 10.24C90.4095 9.80267 90.2548 9.584 89.9455 9.584C89.4762 9.584 89.0335 10.0587 88.6175 11.008C88.2122 11.9467 87.9402 12.8267 87.8015 13.648C87.8548 14.448 87.9615 15.168 88.1215 15.808ZM93.258 13.344L93.418 11.04C93.418 10.0053 93.2687 9.024 92.97 8.096C93.2687 7.968 93.6367 7.904 94.074 7.904C94.9273 7.904 95.354 8.37867 95.354 9.328C95.354 9.75467 95.2953 10.3573 95.178 11.136C95.0607 11.9147 95.002 12.4533 95.002 12.752C95.002 13.04 95.0073 13.2533 95.018 13.392C95.0287 13.52 95.0553 13.6747 95.098 13.856C95.162 14.2187 95.37 14.4 95.722 14.4C96.0847 14.4 96.4687 14.1173 96.874 13.552C97.29 12.976 97.6207 12.3413 97.866 11.648C98.122 10.9547 98.25 10.4053 98.25 10C98.1967 9.15733 98.106 8.52267 97.978 8.096C98.3193 7.968 98.666 7.904 99.018 7.904C99.3807 7.904 99.6793 8.016 99.914 8.24C100.159 8.464 100.282 8.76267 100.282 9.136C100.282 14.96 99.2153 18.4533 97.082 19.616C96.602 19.872 96.058 20 95.45 20C94.842 20 94.3087 19.84 93.85 19.52C93.402 19.2 93.178 18.752 93.178 18.176C93.178 17.792 93.322 17.4667 93.61 17.2C93.898 16.944 94.2393 16.816 94.634 16.816C94.7193 16.816 94.826 16.8267 94.954 16.848C94.922 16.9867 94.906 17.1093 94.906 17.216C94.906 18.1547 95.2313 18.624 95.882 18.624C96.2767 18.624 96.634 18.4107 96.954 17.984C97.274 17.5573 97.53 17.0347 97.722 16.416C98.0953 15.1573 98.282 14.016 98.282 12.992C97.962 13.856 97.5247 14.5547 96.97 15.088C96.426 15.6107 95.834 15.872 95.194 15.872C93.9033 15.872 93.258 15.0293 93.258 13.344ZM45.152 30.88C45.152 32.9387 45.264 34.5813 45.488 35.808C45.1467 35.936 44.784 36 44.4 36C44.016 36 43.68 35.8773 43.392 35.632C43.1147 35.3867 42.976 35.0507 42.976 34.624C42.976 34.1867 43.0293 33.3653 43.136 32.16C43.2427 30.9547 43.296 30.0213 43.296 29.36C43.296 27.728 43.184 26.1547 42.96 24.64C43.7493 24.704 44.8107 24.736 46.144 24.736C47.4773 24.736 48.752 24.64 49.968 24.448C50.096 24.6827 50.16 24.9653 50.16 25.296C50.16 25.616 50.032 25.904 49.776 26.16C49.5307 26.4053 49.2213 26.528 48.848 26.528C48.4853 26.528 47.8987 26.4747 47.088 26.368C46.288 26.2613 45.696 26.208 45.312 26.208C45.2267 27.3707 45.1733 28.4373 45.152 29.408C45.7707 29.472 46.4533 29.504 47.2 29.504C47.9573 29.504 48.6133 29.392 49.168 29.168C49.296 29.4027 49.36 29.6853 49.36 30.016C49.36 30.336 49.232 30.6293 48.976 30.896C48.7307 31.152 48.4373 31.28 48.096 31.28C47.7547 31.28 47.264 31.216 46.624 31.088C45.984 30.9493 45.4933 30.88 45.152 30.88ZM53.744 36.192C52.5707 36.192 51.7067 35.8507 51.152 35.168C50.5973 34.4747 50.32 33.5147 50.32 32.288C50.32 31.0507 50.688 29.9787 51.424 29.072C52.16 28.1653 53.104 27.712 54.256 27.712C56.624 27.712 57.808 29.0453 57.808 31.712C57.808 32.96 57.424 34.0213 56.656 34.896C55.888 35.76 54.9173 36.192 53.744 36.192ZM52.592 29.472C52.4 30.0907 52.304 30.7093 52.304 31.328C52.304 31.9467 52.3253 32.4267 52.368 32.768C52.4107 33.1093 52.4907 33.4507 52.608 33.792C52.8533 34.4853 53.3333 34.832 54.048 34.832C54.7733 34.832 55.248 34.64 55.472 34.256C55.7067 33.872 55.824 33.28 55.824 32.48C55.824 30.208 55.2853 29.072 54.208 29.072C53.5893 29.072 53.0507 29.2053 52.592 29.472ZM61.9784 36.192C60.805 36.192 59.941 35.8507 59.3864 35.168C58.8317 34.4747 58.5544 33.5147 58.5544 32.288C58.5544 31.0507 58.9224 29.9787 59.6584 29.072C60.3944 28.1653 61.3384 27.712 62.4904 27.712C64.8584 27.712 66.0424 29.0453 66.0424 31.712C66.0424 32.96 65.6584 34.0213 64.8904 34.896C64.1224 35.76 63.1517 36.192 61.9784 36.192ZM60.8264 29.472C60.6344 30.0907 60.5384 30.7093 60.5384 31.328C60.5384 31.9467 60.5597 32.4267 60.6024 32.768C60.645 33.1093 60.725 33.4507 60.8424 33.792C61.0877 34.4853 61.5677 34.832 62.2824 34.832C63.0077 34.832 63.4824 34.64 63.7064 34.256C63.941 33.872 64.0584 33.28 64.0584 32.48C64.0584 30.208 63.5197 29.072 62.4424 29.072C61.8237 29.072 61.285 29.2053 60.8264 29.472ZM72.3728 24.192C72.7141 24.064 73.0661 24 73.4288 24C73.7914 24 74.0901 24.1227 74.3248 24.368C74.5594 24.6027 74.6768 24.9013 74.6768 25.264C74.6768 25.616 74.6234 26.4587 74.5168 27.792C74.4101 29.1147 74.3568 30.4213 74.3568 31.712C74.3568 32.992 74.4848 34.3573 74.7408 35.808C74.3568 35.936 73.9568 36 73.5408 36C72.8368 36 72.4848 35.504 72.4848 34.512C72.4848 34.1813 72.5541 33.5893 72.6928 32.736C72.2448 33.6853 71.8448 34.3893 71.4928 34.848C71.1514 35.3067 70.8154 35.632 70.4848 35.824C70.1648 36.0053 69.8234 36.096 69.4608 36.096C68.6501 36.096 68.0261 35.7973 67.5888 35.2C67.1621 34.6027 66.9488 33.8667 66.9488 32.992C66.9488 32.1173 67.1034 31.296 67.4128 30.528C67.7328 29.7493 68.2074 29.104 68.8368 28.592C69.4768 28.0693 70.1541 27.808 70.8688 27.808C71.5834 27.808 72.2021 27.904 72.7248 28.096C72.7034 26.72 72.5861 25.4187 72.3728 24.192ZM72.7248 29.456C72.2021 29.264 71.6368 29.168 71.0288 29.168C70.4208 29.168 69.8981 29.344 69.4608 29.696C69.0981 30.56 68.9168 31.5253 68.9168 32.592C68.9168 33.0827 68.9861 33.552 69.1248 34C69.2634 34.448 69.4928 34.672 69.8128 34.672C70.3034 34.672 70.8581 34.1227 71.4768 33.024C72.1061 31.9253 72.5221 30.736 72.7248 29.456Z" fill="black"/>
</svg>
